{
  "accessors": [
    {
      "bufferView": 2,
      "componentType": 5126,
      "count": 77,
      "max": [
        1.1360824108123779,
        0.50028806924819946,
        0.87054884433746338
      ],
      "min": [
        -1.0616862773895264,
        -0.60047703981399536,
        0.28652000427246094
      ],
      "type": "VEC3"
    },
    {
      "bufferView": 2,
      "byteOffset": 924,
      "componentType": 5126,
      "count": 77,
      "max": [
        1,
        1,
        1
      ],
      "min": [
        -1,
        -1,
        0
      ],
      "type": "VEC3"
    },
    {
      "bufferView": 3,
      "componentType": 5126,
      "count": 77,
      "max": [
        1,
        1,
        6.2493454606737942e-06,
        1
      ],
      "min": [
        -1,
        -1,
        -6.249345915421145e-06,
        1
      ],
      "type": "VEC4"
    },
    {
      "bufferView": 3,
      "byteOffset": 1232,
      "componentType": 5126,
      "count": 77,
      "max": [
        1,
        1,
        1,
        1
      ],
      "min": [
        1,
        1,
        1,
        1
      ],
      "type": "VEC4"
    },
    {
      "bufferView": 0,
      "componentType": 5125,
      "count": 135,
      "max": [
        76
      ],
      "min": [
        0
      ],
      "type": "SCALAR"
    },
    {
      "bufferView": 2,
      "byteOffset": 1848,
      "componentType": 5126,
      "count": 1916,
      "max": [
        1.1587249040603638,
        0.50681215524673462,
        1.110796332359314
      ],
      "min": [
        -1.0835932493209839,
        -0.60634273290634155,
        0.057039998471736908
      ],
      "type": "VEC3"
    },
    {
      "bufferView": 2,
      "byteOffset": 24840,
      "componentType": 5126,
      "count": 1916,
      "max": [
        1,
        1,
        1
      ],
      "min": [
        -1,
        -1,
        -1
      ],
      "type": "VEC3"
    },
    {
      "bufferView": 3,
      "byteOffset": 2464,
      "componentType": 5126,
      "count": 1916,
      "max": [
        1,
        1,
        1,
        1
      ],
      "min": [
        -1,
        -1,
        -1,
        -1
      ],
      "type": "VEC4"
    },
    {
      "bufferView": 3,
      "byteOffset": 33120,
      "componentType": 5126,
      "count": 1916,
      "max": [
        1,
        1,
        1,
        1
      ],
      "min": [
        1,
        1,
        1,
        1
      ],
      "type": "VEC4"
    },
    {
      "bufferView": 1,
      "componentType": 5126,
      "count": 1916,
      "max": [
        2.1913096904754639,
        1.4457200765609741
      ],
      "min": [
        -1.3325108289718628,
        -1.0691902637481689
      ],
      "type": "VEC2"
    },
    {
      "bufferView": 0,
      "byteOffset": 540,
      "componentType": 5125,
      "count": 4281,
      "max": [
        1915
      ],
      "min": [
        0
      ],
      "type": "SCALAR"
    },
    {
      "bufferView": 2,
      "byteOffset": 47832,
      "componentType": 5126,
      "count": 216,
      "max": [
        1.1620041131973267,
        0.51009148359298706,
        0.061333358287811279
      ],
      "min": [
        -1.0868725776672363,
        -0.60962200164794922,
        -4.5119463175488902e-17
      ],
      "type": "VEC3"
    },
    {
      "bufferView": 2,
      "byteOffset": 50424,
      "componentType": 5126,
      "count": 216,
      "max": [
        0.92258059978485107,
        0.92257964611053467,
        0.68734103441238403
      ],
      "min": [
        -0.92258036136627197,
        -0.9225800633430481,
        -1
      ],
      "type": "VEC3"
    },
    {
      "bufferView": 3,
      "byteOffset": 63776,
      "componentType": 5126,
      "count": 216,
      "max": [
        0.92388051748275757,
        0.92388111352920532,
        5.6691192185098771e-08,
        1
      ],
      "min": [
        -1,
        -0.923880934715271,
        -5.6691025207555867e-08,
        1
      ],
      "type": "VEC4"
    },
    {
      "bufferView": 3,
      "byteOffset": 67232,
      "componentType": 5126,
      "count": 216,
      "max": [
        1,
        1,
        1,
        1
      ],
      "min": [
        1,
        1,
        1,
        1
      ],
      "type": "VEC4"
    },
    {
      "bufferView": 1,
      "byteOffset": 15328,
      "componentType": 5126,
      "count": 216,
      "max": [
        1.2256311178207397,
        0.86211758852005005
      ],
      "min": [
        -1.2256311178207397,
        -0.83839160203933716
      ],
      "type": "VEC2"
    },
    {
      "bufferView": 0,
      "byteOffset": 17664,
      "componentType": 5125,
      "count": 342,
      "max": [
        215
      ],
      "min": [
        0
      ],
      "type": "SCALAR"
    },
    {
      "bufferView": 2,
      "byteOffset": 53016,
      "componentType": 5126,
      "count": 1262,
      "max": [
        1.1360824108123779,
        0.50762295722961426,
        0.87054884433746338
      ],
      "min": [
        -1.0616862773895264,
        -0.60781192779541016,
        0.30702093243598938
      ],
      "type": "VEC3"
    },
    {
      "bufferView": 2,
      "byteOffset": 68160,
      "componentType": 5126,
      "count": 1262,
      "max": [
        1,
        1,
        0.94389206171035767
      ],
      "min": [
        -0.80436968803405762,
        -1,
        -1
      ],
      "type": "VEC3"
    },
    {
      "bufferView": 3,
      "byteOffset": 70688,
      "componentType": 5126,
      "count": 1262,
      "max": [
        1,
        0.99124890565872192,
        8.4690491348737851e-06,
        1
      ],
      "min": [
        -1,
        -0.991249680519104,
        -0.7071068286895752,
        1
      ],
      "type": "VEC4"
    },
    {
      "bufferView": 3,
      "byteOffset": 90880,
      "componentType": 5126,
      "count": 1262,
      "max": [
        1,
        1,
        1,
        1
      ],
      "min": [
        1,
        1,
        1,
        1
      ],
      "type": "VEC4"
    },
    {
      "bufferView": 1,
      "byteOffset": 17056,
      "componentType": 5126,
      "count": 1262,
      "max": [
        10.984213829040527,
        14.295163154602051
      ],
      "min": [
        -10.984213829040527,
        -10.542501449584961
      ],
      "type": "VEC2"
    },
    {
      "bufferView": 0,
      "byteOffset": 19032,
      "componentType": 5125,
      "count": 4602,
      "max": [
        1261
      ],
      "min": [
        0
      ],
      "type": "SCALAR"
    },
    {
      "bufferView": 2,
      "byteOffset": 83304,
      "componentType": 5126,
      "count": 848,
      "max": [
        1.1017220020294189,
        0.56251728534698486,
        0.54923272132873535
      ],
      "min": [
        -1.0190744400024414,
        -0.63078516721725464,
        0.40972000360488892
      ],
      "type": "VEC3"
    },
    {
      "bufferView": 2,
      "byteOffset": 93480,
      "componentType": 5126,
      "count": 848,
      "max": [
        1,
        0.99705427885055542,
        1
      ],
      "min": [
        -0.99530541896820068,
        -0.97844362258911133,
        -0.99997752904891968
      ],
      "type": "VEC3"
    },
    {
      "bufferView": 3,
      "byteOffset": 111072,
      "componentType": 5126,
      "count": 848,
      "max": [
        0.99953758716583252,
        0.99953877925872803,
        0.90406328439712524,
        1
      ],
      "min": [
        -0.99993300437927246,
        -0.99978643655776978,
        -0.98980826139450073,
        -1
      ],
      "type": "VEC4"
    },
    {
      "bufferView": 3,
      "byteOffset": 124640,
      "componentType": 5126,
      "count": 848,
      "max": [
        1,
        1,
        1,
        1
      ],
      "min": [
        1,
        1,
        1,
        1
      ],
      "type": "VEC4"
    },
    {
      "bufferView": 1,
      "byteOffset": 27152,
      "componentType": 5126,
      "count": 848,
      "max": [
        3.1663830280303955,
        1.2323088645935059
      ],
      "min": [
        -3.1523051261901855,
        -2.5439891815185547
      ],
      "type": "VEC2"
    },
    {
      "bufferView": 0,
      "byteOffset": 37440,
      "componentType": 5125,
      "count": 1554,
      "max": [
        847
      ],
      "min": [
        0
      ],
      "type": "SCALAR"
    },
    {
      "bufferView": 2,
      "byteOffset": 103656,
      "componentType": 5126,
      "count": 231,
      "max": [
        -1.0289384126663208,
        0.50324773788452148,
        1.109982967376709
      ],
      "min": [
        -1.0835932493209839,
        -0.60634273290634155,
        0.057039998471736908
      ],
      "type": "VEC3"
    },
    {
      "bufferView": 2,
      "byteOffset": 106428,
      "componentType": 5126,
      "count": 231,
      "max": [
        1,
        0.99879544973373413,
        0.98448216915130615
      ],
      "min": [
        -0.99879550933837891,
        -1,
        -1
      ],
      "type": "VEC3"
    },
    {
      "bufferView": 3,
      "byteOffset": 138208,
      "componentType": 5126,
      "count": 231,
      "max": [
        1,
        1,
        0.80782055854797363,
        1
      ],
      "min": [
        -1,
        -0.99990755319595337,
        -0.97222131490707397,
        1
      ],
      "type": "VEC4"
    },
    {
      "bufferView": 3,
      "byteOffset": 141904,
      "componentType": 5126,
      "count": 231,
      "max": [
        1,
        1,
        1,
        1
      ],
      "min": [
        1,
        1,
        1,
        1
      ],
      "type": "VEC4"
    },
    {
      "bufferView": 1,
      "byteOffset": 33936,
      "componentType": 5126,
      "count": 231,
      "max": [
        1.1202774047851562,
        1.4457200765609741
      ],
      "min": [
        -1.3325108289718628,
        -0.71119719743728638
      ],
      "type": "VEC2"
    },
    {
      "bufferView": 0,
      "byteOffset": 43656,
      "componentType": 5125,
      "count": 696,
      "max": [
        230
      ],
      "min": [
        0
      ],
      "type": "SCALAR"
    },
    {
      "bufferView": 2,
      "byteOffset": 109200,
      "componentType": 5126,
      "count": 72,
      "max": [
        -1.0256590843200684,
        -0.54840850830078125,
        0.060520000755786896
      ],
      "min": [
        -1.0868725776672363,
        -0.60962200164794922,
        0
      ],
      "type": "VEC3"
    },
    {
      "bufferView": 2,
      "byteOffset": 110064,
      "componentType": 5126,
      "count": 72,
      "max": [
        0.92257881164550781,
        0.92257964611053467,
        0.68734067678451538
      ],
      "min": [
        -0.92258059978485107,
        -0.92257970571517944,
        -1
      ],
      "type": "VEC3"
    },
    {
      "bufferView": 3,
      "byteOffset": 145600,
      "componentType": 5126,
      "count": 72,
      "max": [
        0.92388015985488892,
        0.92387932538986206,
        4.406825482305976e-08,
        1
      ],
      "min": [
        -1,
        -0.9238811731338501,
        -3.6207058684567528e-08,
        1
      ],
      "type": "VEC4"
    },
    {
      "bufferView": 3,
      "byteOffset": 146752,
      "componentType": 5126,
      "count": 72,
      "max": [
        1,
        1,
        1,
        1
      ],
      "min": [
        1,
        1,
        1,
        1
      ],
      "type": "VEC4"
    },
    {
      "bufferView": 1,
      "byteOffset": 35784,
      "componentType": 5126,
      "count": 72,
      "max": [
        1.2240020036697388,
        0.86211758852005005
      ],
      "min": [
        -1.2240020036697388,
        -0.80917227268218994
      ],
      "type": "VEC2"
    },
    {
      "bufferView": 0,
      "byteOffset": 46440,
      "componentType": 5125,
      "count": 114,
      "max": [
        71
      ],
      "min": [
        0
      ],
      "type": "SCALAR"
    }
  ],
  "asset": {
    "generator": "Sketchfab (OSG glTF plugin)",
    "version": "2.0"
  },
  "bufferViews": [
    {
      "buffer": 0,
      "byteLength": 46896,
      "byteOffset": 0,
      "name": "floatBufferViews",
      "target": 34963
    },
    {
      "buffer": 0,
      "byteLength": 36360,
      "byteOffset": 46896,
      "byteStride": 8,
      "name": "floatBufferViews",
      "target": 34962
    },
    {
      "buffer": 0,
      "byteLength": 110928,
      "byteOffset": 83256,
      "byteStride": 12,
      "name": "floatBufferViews",
      "target": 34962
    },
    {
      "buffer": 0,
      "byteLength": 147904,
      "byteOffset": 194184,
      "byteStride": 16,
      "name": "floatBufferViews",
      "target": 34962
    }
  ],
  "buffers": [
    {
      "byteLength": 342088,
      "uri": "scene.bin"
    }
  ],
  "images": [
    {
      "uri": "textures/_6_baseColor.png"
    },
    {
      "uri": "textures/_6_emissive.png"
    },
    {
      "uri": "textures/_3_baseColor.jpeg"
    },
    {
      "uri": "textures/_4_baseColor.jpeg"
    },
    {
      "uri": "textures/_5_baseColor.png"
    }
  ],
  "materials": [
    {
      "doubleSided": true,
      "emissiveFactor": [
        0,
        0,
        0
      ],
      "name": "FrontCol",
      "pbrMetallicRoughness": {
        "baseColorFactor": [
          1,
          1,
          1,
          1
        ],
        "metallicFactor": 0,
        "roughnessFactor": 0.59999999999999998
      }
    },
    {
      "doubleSided": true,
      "emissiveFactor": [
        0,
        0,
        0
      ],
      "name": "_3",
      "pbrMetallicRoughness": {
        "baseColorFactor": [
          1,
          1,
          1,
          1
        ],
        "baseColorTexture": {
          "index": 2,
          "texCoord": 0
        },
        "metallicFactor": 0,
        "roughnessFactor": 0.54439786590000006
      }
    },
    {
      "doubleSided": true,
      "emissiveFactor": [
        0,
        0,
        0
      ],
      "name": "_5",
      "pbrMetallicRoughness": {
        "baseColorFactor": [
          1,
          1,
          1,
          1
        ],
        "baseColorTexture": {
          "index": 4,
          "texCoord": 0
        },
        "metallicFactor": 0,
        "roughnessFactor": 0.59999999999999998
      }
    },
    {
      "doubleSided": true,
      "emissiveFactor": [
        0,
        0,
        0
      ],
      "emissiveTexture": {
        "index": 1,
        "texCoord": 0
      },
      "name": "_6",
      "pbrMetallicRoughness": {
        "baseColorFactor": [
          1,
          1,
          1,
          1
        ],
        "baseColorTexture": {
          "index": 0,
          "texCoord": 0
        },
        "metallicFactor": 0,
        "roughnessFactor": 0.59999999999999998
      }
    },
    {
      "doubleSided": true,
      "emissiveFactor": [
        0,
        0,
        0
      ],
      "name": "_4",
      "pbrMetallicRoughness": {
        "baseColorFactor": [
          1,
          1,
          1,
          1
        ],
        "baseColorTexture": {
          "index": 3,
          "texCoord": 0
        },
        "metallicFactor": 0,
        "roughnessFactor": 1
      }
    }
  ],
  "meshes": [
    {
      "primitives": [
        {
          "attributes": {
            "COLOR_0": 3,
            "NORMAL": 1,
            "POSITION": 0,
            "TANGENT": 2
          },
          "indices": 4,
          "material": 0,
          "mode": 4
        }
      ]
    },
    {
      "primitives": [
        {
          "attributes": {
            "COLOR_0": 8,
            "NORMAL": 6,
            "POSITION": 5,
            "TANGENT": 7,
            "TEXCOORD_0": 9
          },
          "indices": 10,
          "material": 1,
          "mode": 4
        }
      ]
    },
    {
      "primitives": [
        {
          "attributes": {
            "COLOR_0": 14,
            "NORMAL": 12,
            "POSITION": 11,
            "TANGENT": 13,
            "TEXCOORD_0": 15
          },
          "indices": 16,
          "material": 2,
          "mode": 4
        }
      ]
    },
    {
      "primitives": [
        {
          "attributes": {
            "COLOR_0": 20,
            "NORMAL": 18,
            "POSITION": 17,
            "TANGENT": 19,
            "TEXCOORD_0": 21
          },
          "indices": 22,
          "material": 3,
          "mode": 4
        }
      ]
    },
    {
      "primitives": [
        {
          "attributes": {
            "COLOR_0": 26,
            "NORMAL": 24,
            "POSITION": 23,
            "TANGENT": 25,
            "TEXCOORD_0": 27
          },
          "indices": 28,
          "material": 4,
          "mode": 4
        }
      ]
    },
    {
      "primitives": [
        {
          "attributes": {
            "COLOR_0": 32,
            "NORMAL": 30,
            "POSITION": 29,
            "TANGENT": 31,
            "TEXCOORD_0": 33
          },
          "indices": 34,
          "material": 1,
          "mode": 4
        }
      ]
    },
    {
      "primitives": [
        {
          "attributes": {
            "COLOR_0": 38,
            "NORMAL": 36,
            "POSITION": 35,
            "TANGENT": 37,
            "TEXCOORD_0": 39
          },
          "indices": 40,
          "material": 2,
          "mode": 4
        }
      ]
    }
  ],
  "nodes": [
    {
      "children": [
        1
      ],
      "name": "RootNode (gltf orientation matrix)",
      "rotation": [
        -0.70710678118654746,
        -0,
        -0,
        0.70710678118654757
      ]
    },
    {
      "children": [
        2
      ],
      "name": "RootNode (model correction matrix)"
    },
    {
      "children": [
        3
      ],
      "name": "Bed & Dirty Old Mattress.3ds"
    },
    {
      "children": [
        4
      ],
      "name": "Model"
    },
    {
      "children": [
        5,
        11,
        16
      ],
      "name": "koyka1"
    },
    {
      "children": [
        10
      ],
      "name": "Group1"
    },
    {
      "mesh": 0,
      "name": ""
    },
    {
      "mesh": 1,
      "name": ""
    },
    {
      "mesh": 2,
      "name": ""
    },
    {
      "mesh": 3,
      "name": ""
    },
    {
      "children": [
        6,
        7,
        8,
        9
      ],
      "name": "Geode"
    },
    {
      "children": [
        13
      ],
      "name": "matras"
    },
    {
      "mesh": 4,
      "name": ""
    },
    {
      "children": [
        12
      ],
      "name": "Geode"
    },
    {
      "mesh": 5,
      "name": ""
    },
    {
      "mesh": 6,
      "name": ""
    },
    {
      "children": [
        14,
        15
      ],
      "name": "Geode"
    }
  ],
  "samplers": [
    {
      "magFilter": 9729,
      "minFilter": 9987,
      "wrapS": 10497,
      "wrapT": 10497
    }
  ],
  "scene": 0,
  "scenes": [
    {
      "name": "OSG_Scene",
      "nodes": [
        0
      ]
    }
  ],
  "textures": [
    {
      "sampler": 0,
      "source": 0
    },
    {
      "sampler": 0,
      "source": 1
    },
    {
      "sampler": 0,
      "source": 2
    },
    {
      "sampler": 0,
      "source": 3
    },
    {
      "sampler": 0,
      "source": 4
    }
  ]
}

